<?xml version="1.0" standalone="no"?>
<!DOCTYPE svg PUBLIC "-//W3C//DTD SVG 20010904//EN"
 "http://www.w3.org/TR/2001/REC-SVG-20010904/DTD/svg10.dtd">
<svg version="1.0" xmlns="http://www.w3.org/2000/svg"
 width="125.000000pt" height="165.000000pt" viewBox="0 0 125.000000 165.000000"
 preserveAspectRatio="xMidYMid meet">
<metadata>
Created by potrace 1.15, written by Peter Selinger 2001-2017
</metadata>
<g transform="translate(0.000000,165.000000) scale(0.100000,-0.100000)"
fill="#000000" stroke="none">
<path d="M595 1601 c-6 -4 -34 -16 -62 -27 -29 -10 -53 -23 -53 -29 0 -7 -10
-20 -22 -31 -18 -16 -20 -16 -15 -2 3 9 3 19 0 22 -9 9 -43 -35 -44 -58 -1
-15 -3 -13 -9 9 -7 27 -8 26 -9 -15 -1 -25 -8 -58 -17 -75 -21 -41 -31 -219
-15 -268 7 -21 19 -37 27 -37 9 0 12 -5 8 -11 -3 -6 -17 -8 -31 -4 -28 7 -53
-9 -53 -33 0 -17 49 -122 57 -122 3 0 2 7 -1 16 -5 14 -4 15 8 5 8 -7 18 -26
21 -42 4 -16 10 -29 14 -29 13 0 61 -142 61 -180 0 -45 -22 -77 -60 -85 -16
-4 -32 -10 -34 -14 -9 -14 33 -88 78 -135 37 -39 51 -47 70 -42 13 3 26 1 28
-4 2 -6 28 -12 58 -14 48 -4 66 1 136 35 84 40 144 94 144 129 0 17 7 15 86
-16 48 -19 94 -33 103 -31 13 4 13 5 -2 6 -11 1 -15 6 -11 12 3 6 1 15 -7 19
-9 6 -10 12 -1 22 7 9 8 19 2 28 -8 12 -10 12 -10 -4 0 -31 -13 -9 -15 26 -1
18 3 36 9 41 8 5 6 10 -4 17 -13 9 -13 12 3 21 12 7 15 17 11 36 -4 16 -2 28
7 34 12 8 12 10 0 18 -9 6 -10 14 -4 27 10 21 9 126 -2 143 -3 6 -4 15 0 20 3
5 1 12 -4 16 -6 3 -8 12 -4 20 3 8 1 15 -4 15 -5 0 -9 8 -10 18 -2 32 -9 52
-21 64 -7 7 -12 18 -12 25 0 7 -12 19 -27 27 -16 8 -23 15 -16 16 6 0 9 9 6
20 -3 11 0 27 7 35 6 8 9 19 5 25 -3 5 -1 10 4 10 6 0 11 16 11 35 0 19 5 35
10 35 6 0 10 5 10 11 0 6 -7 8 -16 5 -8 -3 -12 -2 -9 4 3 6 1 10 -5 10 -8 0
-8 6 0 20 17 32 8 81 -17 97 -13 9 -23 24 -23 35 0 14 -5 18 -14 15 -9 -4 -17
1 -21 12 -4 13 -12 17 -29 14 -17 -4 -25 0 -29 14 -4 14 -5 15 -6 2 -1 -15
-10 -14 -93 7 -99 26 -129 29 -143 15z"/>
</g>
</svg>
